<svg xmlns="http://www.w3.org/2000/svg" viewBox="0 0 64 64" role="img" aria-label="Legalator logo">
  <defs>
    <linearGradient id="g" x1="0" y1="0" x2="1" y2="1">
      <stop offset="0%" stop-color="#1E293B"/>
      <stop offset="100%" stop-color="#0F172A"/>
    </linearGradient>
  </defs>
  <rect x="4" y="4" width="56" height="56" rx="14" fill="url(#g)"/>
  <path d="M32 15c1.2 0 2.2 1 2.2 2.2v5.2l10.5 4.1a2.2 2.2 0 0 1 0 4.1L34.2 35v8.3h7.8c1.2 0 2.2 1 2.2 2.2s-1 2.2-2.2 2.2H22c-1.2 0-2.2-1-2.2-2.2s1-2.2 2.2-2.2h7.8V35L19.3 30.6a2.2 2.2 0 0 1 0-4.1l10.5-4.1v-5.2c0-1.2 1-2.2 2.2-2.2Zm-7.1 16.2 7.1 2.8 7.1-2.8L32 28.4l-7.1 2.8Z" fill="#22D3EE"/>
</svg>
